<svg xmlns="http://www.w3.org/2000/svg" width="77" height="77" fill="none"><path d="M60.487 38.54c4.556 0 8.249 3.695 8.249 8.254v2.72A8.254 8.254 0 0 1 77 57.767v10.98C77 73.304 73.308 77 68.752 77H52.255c-4.555 0-8.248-3.695-8.248-8.254V57.768c0-4.554 3.684-8.246 8.232-8.254v-2.72c0-4.559 3.693-8.254 8.248-8.254Zm8.265 16.476H52.255a2.75 2.75 0 0 0-2.705 2.257l-.044.494v10.98c0 1.35.972 2.473 2.255 2.706l.494.044h16.497a2.75 2.75 0 0 0 2.705-2.256l.044-.495V57.768a2.751 2.751 0 0 0-2.255-2.708l-.494-.044ZM32.993 0c18.222 0 32.993 14.781 32.993 33.015l-.02 1.159a13.694 13.694 0 0 0-5.478-1.136c0-15.217-12.31-27.535-27.495-27.535S5.5 17.82 5.5 33.015s12.31 27.513 27.494 27.513c1.889 0 3.733-.19 5.515-.553v5.596a33.18 33.18 0 0 1-5.515.46C14.771 66.03 0 51.249 0 33.015 0 14.782 14.771 0 32.993 0Zm27.51 60.505a2.75 2.75 0 0 1 2.75 2.752 2.75 2.75 0 1 1-2.75-2.752Zm-.016-16.463c-1.35 0-2.472.974-2.705 2.257l-.044.495v2.72h5.499v-2.72a2.75 2.75 0 0 0-2.75-2.752ZM48.541 22.907a2.754 2.754 0 0 1 .322 3.51l-.317.381-17.73 17.79a2.75 2.75 0 0 1-3.51.321l-.381-.319-9.623-9.63a2.752 2.752 0 0 1 0-3.89 2.749 2.749 0 0 1 3.507-.319l.381.319 7.676 7.681 15.786-15.838a2.748 2.748 0 0 1 3.889-.006Z" fill="url('#paint0_linear_732_3445')"/><defs><linearGradient id="paint0_linear_732_3445" x1="-32.476" y1="-23.333" x2="82.133" y2="-17.609" gradientUnits="userSpaceOnUse"><stop stop-color="#08899A"/><stop offset="1" stop-color="#2B3453"/></linearGradient></defs></svg>