<svg xmlns="http://www.w3.org/2000/svg" width="80" height="80" fill="none"><path d="M50.718 0c-13.497 0-24.85 9.221-28.174 21.686C10.08 25.01.858 36.363.858 49.861c0 16.095 13.093 29.187 29.188 29.187 13.497 0 24.85-9.22 28.174-21.686 12.465-3.323 21.686-14.677 21.686-28.174C79.906 13.092 66.814 0 50.718 0ZM27.015 26.157a23.921 23.921 0 0 1 3.03-.214c.992 0 1.964.08 2.925.197l-5.972 5.972a23.94 23.94 0 0 1-.197-2.924c0-1.03.087-2.036.214-3.031Zm5.048 17.96a23.911 23.911 0 0 1-3.543-6.074L38.9 27.662a23.91 23.91 0 0 1 6.075 3.543L32.063 44.117Zm16.638-9.186a23.913 23.913 0 0 1 3.543 6.075l-10.38 10.38a23.91 23.91 0 0 1-6.075-3.543L48.7 34.931ZM30.046 73.778c-13.19 0-23.918-10.73-23.918-23.918 0-10.217 6.453-18.935 15.488-22.354-.032.56-.085 1.114-.085 1.682 0 16.095 13.093 29.187 29.187 29.187.568 0 1.122-.053 1.682-.085-3.42 9.035-12.137 15.488-22.354 15.488Zm23.703-20.887a23.92 23.92 0 0 1-3.03.214c-.992 0-1.964-.08-2.924-.197l5.97-5.971c.119.96.198 1.932.198 2.924a23.92 23.92 0 0 1-.214 3.03Zm5.399-1.349c.032-.56.085-1.114.085-1.681 0-16.096-13.092-29.188-29.187-29.188-.568 0-1.122.053-1.682.085C31.783 11.723 40.5 5.27 50.718 5.27c13.188 0 23.918 10.73 23.918 23.918 0 10.217-6.453 18.935-15.488 22.354Z" fill="url('#paint0_linear_732_3439')"/><defs><linearGradient id="paint0_linear_732_3439" x1="-32.482" y1="-23.954" x2="85.176" y2="-18.077" gradientUnits="userSpaceOnUse"><stop stop-color="#08899A"/><stop offset="1" stop-color="#2B3453"/></linearGradient></defs></svg>