<svg xmlns="http://www.w3.org/2000/svg" width="70" height="69" fill="none"><circle cx="34.922" cy="34.5" r="32.111" stroke="url('#paint0_linear_731_3312')" stroke-width="4.778"/><path d="M19.282 27.415c0-1.957.552-3.453 1.657-4.49 1.105-1.035 2.556-1.553 4.352-1.553 1.772 0 3.211.518 4.316 1.554s1.658 2.532 1.658 4.49c0 1.933-.553 3.43-1.658 4.489-1.105 1.036-2.544 1.554-4.316 1.554-1.773 0-3.224-.518-4.352-1.554-1.105-1.06-1.657-2.556-1.657-4.49ZM43.8 21.752 30.712 46.167H24.22l13.088-24.415H43.8Zm-18.544 3.591c-.944 0-1.416.69-1.416 2.072 0 1.382.472 2.072 1.416 2.072.46 0 .817-.172 1.07-.518.277-.345.415-.863.415-1.554 0-.69-.138-1.208-.415-1.554-.253-.345-.61-.518-1.07-.518Zm11.5 15.126c0-1.934.552-3.419 1.657-4.455 1.128-1.059 2.579-1.588 4.351-1.588 1.773 0 3.2.53 4.283 1.588 1.105 1.036 1.657 2.521 1.657 4.455 0 1.957-.552 3.465-1.657 4.524-1.082 1.036-2.51 1.554-4.283 1.554-1.772 0-3.223-.518-4.35-1.554-1.106-1.06-1.658-2.567-1.658-4.524Zm5.974-2.072c-.967 0-1.45.69-1.45 2.072 0 1.404.483 2.106 1.45 2.106.437 0 .783-.172 1.036-.518.276-.368.414-.897.414-1.588 0-.668-.138-1.174-.414-1.52-.253-.368-.599-.552-1.036-.552Z" fill="url('#paint1_linear_731_3312')"/><defs><linearGradient id="paint0_linear_731_3312" x1="-28.68" y1="-20.909" x2="74.022" y2="-15.78" gradientUnits="userSpaceOnUse"><stop stop-color="#08899A"/><stop offset="1" stop-color="#2B3453"/></linearGradient><linearGradient id="paint1_linear_731_3312" x1="4.501" y1="-9.197" x2="52.208" y2="-7.785" gradientUnits="userSpaceOnUse"><stop stop-color="#08899A"/><stop offset="1" stop-color="#2B3453"/></linearGradient></defs></svg>