<svg aria-hidden="true" style="position: absolute; width: 0; height: 0; overflow: hidden;" version="1.1" xmlns="http://www.w3.org/2000/svg" xmlns:xlink="http://www.w3.org/1999/xlink">
<defs>
<symbol id="icon-logo" viewBox="0 0 180 32">
<path fill="#2b3453" style="fill: var(--color1, #2b3453)" d="M53.933 31.783c8.531 0 14.763-4.845 14.763-11.616 0-6.77-6.231-11.615-14.763-11.615-8.574 0-14.805 4.845-14.805 11.615 0 6.771 6.231 11.616 14.805 11.616zM53.933 27.544c-5.263 0-8.616-3.2-8.616-7.377 0-4.21 3.353-7.376 8.616-7.376 5.22 0 8.573 3.166 8.573 7.376 0 4.177-3.353 7.377-8.573 7.377z"></path>
<path fill="#2b3453" style="fill: var(--color1, #2b3453)" d="M96.19 31.541c0.288 0 0.519-0.232 0.519-0.519 0-3.075 0-18.876 0-21.951 0-0.287-0.231-0.519-0.519-0.519h-5.123c-0.138 0-0.27 0.055-0.367 0.152s-0.152 0.229-0.152 0.367c0 2.582 0 13.923 0 13.923s-10.977-11.805-13.081-14.069c-0.222-0.238-0.531-0.373-0.855-0.373-1.184 0-4.114 0-5.309 0-0.287 0-0.519 0.232-0.519 0.519 0 3.075 0 18.876 0 21.951 0 0.287 0.233 0.519 0.519 0.519 1.162 0 3.963 0 5.125 0 0.287 0 0.519-0.232 0.519-0.519 0-2.642 0-14.474 0-14.474s11.33 12.293 13.471 14.617c0.221 0.24 0.533 0.376 0.858 0.376 1.122 0 3.787 0 4.914 0z"></path>
<path fill="#2b3453" style="fill: var(--color1, #2b3453)" d="M120.827 31.541c0.288 0 0.519-0.232 0.519-0.519 0-0.828 0-2.438 0-3.267 0-0.137-0.054-0.269-0.152-0.367-0.097-0.098-0.229-0.152-0.367-0.152-2.571 0-13.814 0-13.814 0v-5.244h13.51c0.139 0 0.271-0.055 0.368-0.152s0.151-0.229 0.151-0.367c0-0.828 0-2.439 0-3.267 0-0.138-0.053-0.27-0.151-0.368s-0.23-0.151-0.368-0.151c-2.536 0-13.51 0-13.51 0v-4.831h13.814c0.139 0 0.27-0.054 0.367-0.151s0.152-0.229 0.152-0.368c0-0.828 0-2.438 0-3.267 0-0.287-0.231-0.519-0.519-0.519-2.853 0-16.604 0-19.458 0-0.287 0-0.519 0.232-0.519 0.519 0 3.075 0 18.876 0 21.951 0 0.287 0.232 0.519 0.519 0.519 2.854 0 16.605 0 19.458 0z"></path>
<path fill="#2b3453" style="fill: var(--color1, #2b3453)" d="M150.429 31.541c0.204 0 0.39-0.12 0.473-0.306 0.085-0.187 0.051-0.404-0.085-0.558-2.422-2.725-9.741-10.958-9.741-10.958s6.784-7.686 9.097-10.305c0.135-0.153 0.167-0.371 0.083-0.557s-0.268-0.306-0.473-0.306c-1.784 0-5.11 0-6.033 0-0.154 0-0.301 0.068-0.399 0.187-0.992 1.189-6.403 7.672-6.403 7.672s-5.488-6.492-6.489-7.675c-0.098-0.117-0.243-0.184-0.397-0.184-0.91 0-4.185 0-5.95 0-0.203 0-0.388 0.119-0.473 0.305s-0.051 0.404 0.083 0.557c2.31 2.624 9.1 10.34 9.1 10.34s-7.314 8.203-9.739 10.923c-0.136 0.152-0.169 0.371-0.086 0.557s0.269 0.307 0.473 0.307c1.771 0 5.041 0 5.945 0 0.15 0 0.293-0.065 0.391-0.178 1.056-1.218 7.141-8.232 7.141-8.232s6.046 7.010 7.098 8.231c0.098 0.114 0.242 0.179 0.393 0.179 0.91 0 4.21 0 5.989 0z"></path>
<path fill="#2b3453" style="fill: var(--color1, #2b3453)" d="M164.555 31.956c8.734 0 15.114-4.96 15.114-11.891 0-6.932-6.38-11.892-15.114-11.892-8.777 0-15.156 4.96-15.156 11.892 0 6.931 6.379 11.891 15.156 11.891zM164.555 27.616c-5.387 0-8.82-3.276-8.82-7.552 0-4.311 3.432-7.553 8.82-7.553 5.344 0 8.777 3.242 8.777 7.553 0 4.275-3.432 7.552-8.777 7.552z"></path>
<path fill="#2b3453" style="fill: var(--color1, #2b3453)" d="M27.289 15.4c0 0-4.036 7.739-4.791 9.16-0.66 1.241-1.692 1.69-3.073 1.662-1.289-0.027-2.168-0.605-2.743-1.687-1.157-2.174-3.19-6.062-4.194-7.984-0.104-0.2-0.315-0.32-0.54-0.307s-0.421 0.157-0.501 0.368c-1.099 2.969-3.941 10.674-5.429 14.737-0.112 0.307-0.251 0.434-0.596 0.429-1.662-0.019-3.325-0.015-4.988-0.002-0.338 0.002-0.468-0.020-0.308-0.417 2.702-6.691 5.39-13.388 8.080-20.085 0.065-0.162 0.122-0.328 0.177-0.493 0.424-1.263 1.277-2.045 2.61-2.192 1.367-0.151 2.441 0.398 3.117 1.595 1.798 3.182 3.674 6.32 5.33 9.581 0.068 0.135 0.145 0.266 0.245 0.45 0.449-0.847 0.855-1.653 1.296-2.44 1.391-2.488 2.784-4.974 4.195-7.45 0.993-1.742 2.89-2.265 4.532-1.28 0.566 0.34 0.929 0.841 1.165 1.441 2.335 5.955 4.667 11.909 7 17.864 0.389 0.993 0.769 1.987 1.172 2.975 0.129 0.316 0.148 0.461-0.279 0.454-1.575-0.019-3.151-0.023-4.725 0.003-0.38 0.006-0.468-0.2-0.572-0.468z"></path>
<path fill="#2b3453" style="fill: var(--color1, #2b3453)" d="M8.878 3.213c0.015-1.813 1.436-3.184 3.277-3.164 1.731 0.019 3.139 1.468 3.131 3.222-0.009 1.774-1.476 3.185-3.296 3.169-1.733-0.014-3.128-1.461-3.113-3.228z"></path>
<path fill="#2b3453" style="fill: var(--color1, #2b3453)" d="M31.692 3.246c-0.002 1.785-1.414 3.197-3.199 3.2-1.738 0.001-3.193-1.432-3.206-3.157-0.013-1.798 1.416-3.237 3.217-3.24 1.79-0.001 3.19 1.402 3.189 3.197z"></path>
</symbol>
<symbol id="icon-deal" viewBox="0 0 48 32">
<path fill="#d9ed92" style="fill: var(--color1, #d9ed92)" d="M40.069 18.089l-0.003 0.003-3.664-3.36c-0.914-0.838-2.49-2.112-3.503-2.832l-4.035-3.647c-1.013-0.719-2.715-0.788-3.783-0.152l-1.572 0.937c-1.068 0.636-2.551 0.348-3.295-0.641l-0.347-0.463c-0.744-0.989-0.518-2.378 0.501-3.088l3.105-2.164c-0.341-0.168-0.784-0.387-1.273-0.629-1.060-0.524-2.867-0.555-4.014-0.071l-2.58 1.091c-1.146 0.486-3.023 0.486-4.169 0l-2.581-1.091c-1.147-0.484-2.764-0.128-3.593 0.792l-4.699 5.218c-0.829 0.92-0.731 2.328 0.215 3.129l5.066 4.283 1.561-1.615c0.861-0.89 2.304-0.924 3.208-0.075l0.422 0.398c0.849 0.798 0.919 2.099 0.211 2.993 0.865-0.85 2.275-0.874 3.163-0.038l0.423 0.399c0.905 0.85 0.938 2.274 0.077 3.164l-0.85 0.879c0.869-0.813 2.248-0.827 3.123-0.003l0.424 0.398c0.903 0.85 0.937 2.273 0.077 3.164l0.007 0.012c0.861-0.891 2.304-0.925 3.206-0.075l0.425 0.398c0.898 0.845 0.935 2.257 0.088 3.149l0.179 0.152 2.94 2.699c0.913 0.838 2.356 0.787 3.206-0.115l0.397-0.423c0.269-0.286 0.437-0.625 0.525-0.979l-4.486-4.069c-0.327-0.297-0.349-0.8-0.048-1.124s0.811-0.345 1.139-0.047l7.035 6.381c0.689 0.073 1.405-0.155 1.911-0.692l0.397-0.421c0.379-0.403 0.569-0.911 0.591-1.423l-7.017-6.36c-0.327-0.297-0.349-0.8-0.048-1.124s0.811-0.345 1.138-0.047l7.8 7.071c0.515-0.060 1.014-0.284 1.392-0.686l0.398-0.421c0.503-0.534 0.682-1.25 0.56-1.921l-7.87-7.135c-0.327-0.297-0.349-0.8-0.048-1.124 0.302-0.323 0.811-0.345 1.139-0.047l7.635 6.922c0.363-0.111 0.705-0.306 0.981-0.6l0.398-0.422c0.849-0.902 0.796-2.326-0.119-3.163l-1.465-1.344z"></path>
<path fill="#fff" style="fill: var(--color2, #fff)" d="M21.311 25.579l-0.426-0.403c-0.905-0.861-2.351-0.827-3.214 0.076l-0.007-0.012c0.863-0.903 0.828-2.345-0.077-3.206l-0.425-0.403c-0.877-0.835-2.259-0.82-3.131 0.003l0.852-0.89c0.864-0.903 0.83-2.345-0.077-3.206l-0.424-0.404c-0.89-0.847-2.304-0.823-3.171 0.039 0.71-0.906 0.64-2.223-0.212-3.032l-0.423-0.403c-0.906-0.861-2.353-0.827-3.216 0.076l-4.271 4.465c-0.864 0.903-0.829 2.345 0.078 3.206l0.423 0.403c0.837 0.795 2.132 0.816 3.005 0.104l-1.125 1.176c-0.863 0.903-0.828 2.346 0.076 3.206l0.426 0.403c0.905 0.861 2.352 0.827 3.215-0.076l0.878-0.919c-0.782 0.906-0.73 2.283 0.147 3.116l0.426 0.404c0.905 0.861 2.352 0.826 3.215-0.077l1.412-1.457c-0.864 0.903-0.83 2.345 0.076 3.206l0.425 0.403c0.905 0.861 2.351 0.827 3.215-0.076l2.405-2.515c0.864-0.902 0.829-2.345-0.075-3.206zM47.744 9.525c0.837-0.928 0.893-2.492 0.124-3.476l-3.976-5.097c-0.768-0.984-2.264-1.249-3.326-0.588l-3.876 2.417c-1.061 0.661-2.849 0.756-3.974 0.21l-3.797-1.842c-1.126-0.546-2.882-0.404-3.903 0.316l-4.662 3.283c-1.021 0.72-1.247 2.127-0.502 3.13l0.348 0.469c0.746 1.002 2.233 1.294 3.303 0.649l1.576-0.949c1.071-0.645 2.777-0.575 3.793 0.154l4.046 3.695c1.015 0.729 2.595 2.020 3.512 2.87l3.673 3.405 7.64-8.644z"></path>
</symbol>
<symbol id="icon-pig" viewBox="0 0 20 32">
<path fill="#d9ed92" style="fill: var(--color1, #d9ed92)" d="M3.333 27.619h12.381c1.21 0 2.19 0.981 2.19 2.19s-0.981 2.19-2.19 2.19h-12.381c-1.21 0-2.19-0.981-2.19-2.19s0.981-2.19 2.19-2.19z"></path>
<path fill="#fff" style="fill: var(--color2, #fff)" d="M5.606 10.986l0.399 0.934c0.015 0.034 0.042 0.061 0.076 0.074s0.073 0.013 0.106-0.001l0.474-0.203 0.032-0.013c0.029-0.011 0.076-0.029 0.137-0.051 0.124-0.044 0.306-0.104 0.531-0.164 0.451-0.12 1.074-0.239 1.736-0.239 0.644-0 1.3 0.112 1.797 0.231s0.841 0.241 0.862 0.249l0.003 0.001 0.475 0.176c0.072 0.026 0.152-0.010 0.179-0.082l0.353-0.952c0.026-0.072-0.010-0.152-0.082-0.179l-0.475-0.176c-0.020-0.007-0.392-0.144-0.962-0.283s-1.336-0.278-2.15-0.279c-0.8 0.002-1.517 0.137-2.044 0.276-0.525 0.138-0.866 0.282-0.901 0.296l-0.005 0.002-0.467 0.199c-0.034 0.015-0.061 0.042-0.075 0.076s-0.013 0.072 0.001 0.106zM17.869 16.195c0.072 0.064 0.173 0.105 0.287 0.105s0.215-0.041 0.287-0.105c0.071-0.064 0.112-0.147 0.112-0.239s-0.041-0.174-0.112-0.238c-0.072-0.064-0.173-0.105-0.287-0.105s-0.215 0.041-0.287 0.105c-0.072 0.064-0.112 0.147-0.112 0.238s0.040 0.175 0.112 0.239zM1.942 17.899h-1.616c-0.081 0-0.157-0.032-0.213-0.088s-0.089-0.133-0.089-0.213v-4.128c0-0.081 0.032-0.156 0.089-0.213s0.133-0.089 0.213-0.089h1.456c0.193-0.403 0.437-0.786 0.726-1.145-0.054-0.128-0.727-1.704-1.225-2.687-0.204-0.12 2.243-1.371 4.253 0.494 1.092-0.45 2.333-0.705 3.649-0.705 4.37 0 7.914 2.8 7.914 6.255 0 0.094-0.004 0.187-0.009 0.28 0.041 0.15 0.14 0.287 0.286 0.398 0.062 0.047 0.136 0.087 0.213 0.122-0.032-0.068-0.051-0.143-0.051-0.223 0-0.159 0.073-0.302 0.186-0.401s0.265-0.16 0.432-0.16c0.167 0 0.32 0.060 0.432 0.16s0.185 0.243 0.185 0.401c0 0.079-0.019 0.155-0.050 0.223 0.077-0.035 0.151-0.075 0.213-0.122 0.196-0.149 0.307-0.344 0.307-0.553h0.218c0 0.29-0.156 0.548-0.394 0.727s-0.559 0.287-0.911 0.287c-0.352-0-0.674-0.108-0.911-0.287-0.073-0.055-0.135-0.12-0.19-0.188-0.17 1.271-0.821 2.427-1.807 3.355l0.303 3.068c0.016 0.16-0.084 0.308-0.239 0.353l-1.089 0.314c-0.152 0.044-0.315-0.026-0.388-0.167l-1.043-2.019c-1.082 0.439-2.307 0.688-3.606 0.688-1.219 0-2.374-0.218-3.405-0.607l-1.002 1.939c-0.073 0.141-0.236 0.211-0.388 0.167l-1.089-0.314c-0.155-0.045-0.255-0.193-0.239-0.353l0.283-2.866c-0.578-0.499-1.053-1.073-1.403-1.7z"></path>
<path fill="#fff" style="fill: var(--color2, #fff)" d="M12.118 5.424c0 0.828-0.671 1.499-1.499 1.499s-1.499-0.671-1.499-1.499c0-0.828 0.671-1.499 1.499-1.499s1.499 0.671 1.499 1.499z"></path>
<path fill="#fff" style="fill: var(--color2, #fff)" d="M7.836 3.066c0 0.828-0.671 1.499-1.499 1.499s-1.499-0.671-1.499-1.499c0-0.828 0.672-1.499 1.499-1.499s1.499 0.671 1.499 1.499z"></path>
<path fill="#fff" style="fill: var(--color2, #fff)" d="M11.547 0.928c0 0.512-0.415 0.927-0.928 0.927s-0.928-0.415-0.928-0.927c0-0.512 0.415-0.928 0.928-0.928s0.928 0.415 0.928 0.928z"></path>
</symbol>
</defs>
</svg>
